<svg xmlns="http://www.w3.org/2000/svg" viewBox="0 0 229.04 121.08"><defs><style>.letter { fill: #000; } .letter_green { fill: #21812f; } .letter_shadow { fill: #797979; }</style></defs><g id="letters"><g id="B_wrap" style="isolation:isolate"><g id="B_shadow" class="letter_shadow"><path d="M17.8 39.92v4.36l-2.48 12.96v-4.36l2.48-12.96m17.58 6.22v4.36q0-6.16-9.06-6.17V40q9.05 0 9.06 6.14zM17.8 39.92h8.5v4.36h-8.5zm27.57 4.95v4.36q0 8.5-10.26 11.35v-4.36q10.3-2.84 10.3-11.35zm-31.2 15h9.64v4.35h-9.6zm0 0v4.34l-2.7 14v-4.4l2.7-13.9m19.2 6.7V71A5.83 5.83 0 0 0 32 67a6.68 6.68 0 0 0-3.22-2.18 18.5 18.5 0 0 0-4.95-.52v-4.4a18.5 18.5 0 0 1 4.95.52A6.68 6.68 0 0 1 32 62.6a5.83 5.83 0 0 1 1.4 3.94z"/><path xmlns="http://www.w3.org/2000/svg" fill="#686868" d="M0 80.77h24.33v4.36H0zM43.64 67v4.4a13.9 13.9 0 0 1-3.94 9.36q-4 4.4-15.37 4.4V80.8q11.42 0 15.37-4.4a13.9 13.9 0 0 0 3.94-9.4z"/></g><path id="B_letter" d="M45.37 44.83q0 8.5-10.26 11.35 8.6 3.3 8.6 10.78a13.9 13.9 0 0 1-3.9 9.4q-4 4.4-15.34 4.4H0l9.13-47.8H28.3a33.47 33.47 0 0 1 8.5.9 12.15 12.15 0 0 1 5.95 3.88 10.38 10.38 0 0 1 2.62 7.1zM32 70.8a6.76 6.76 0 0 0 1.36-4.3A5.83 5.83 0 0 0 32 62.57a6.68 6.68 0 0 0-3.22-2.18 18.5 18.5 0 0 0-4.95-.6h-9.66l-2.67 14h10.8a23.33 23.33 0 0 0 6.32-.68A6.67 6.67 0 0 0 32 70.8m1.28-20.1a6.67 6.67 0 0 0 2.07-4.6q0-6.16-9.06-6.17h-8.5l-2.5 13h9.6q6.3 0 8.4-2.2" class="letter"/></g><g id="R_wrap"><g id="R_shadow" class="letter_shadow"><path d="M67.88 39.92v4.36L65.2 58.23v-4.35l2.68-13.96"/><path d="M67.88 39.92h10.55v4.36H67.88zM88.5 46.5v4.37A5.8 5.8 0 0 0 87.15 47 6.44 6.44 0 0 0 84 44.86a21.15 21.15 0 0 0-5.53-.54V40a21.15 21.15 0 0 1 5.53.5 6.44 6.44 0 0 1 3.2 2.14 5.8 5.8 0 0 1 1.3 3.87zm10.44-.33v4.36a13.76 13.76 0 0 1-3.17 8.7q-3.16 4-9.77 5.32v-4.37q6.6-1.3 9.77-5.3a13.76 13.76 0 0 0 3.17-8.7zM82.4 80.77v4.36L76.5 65.2v-4.35l5.9 19.92M63.5 60.85h13v4.36h-13zm0 0v4.36l-3.8 20v-4.4l3.8-19.9M50.1 80.8h9.6v4.36h-9.6zm32.3 0h10.28v4.36H82.4z"/></g><path id="R_letter" d="M89.6 34c2.6.8 4.8 2.3 6.5 4.4 1.9 2.2 2.9 4.9 2.9 7.8 0 3.2-1.1 6.3-3.2 8.7-2.1 2.7-5.4 4.4-9.8 5.3l6.7 20.6H82.4l-5.9-19.9h-13l-3.8 19.9h-9.6L59.2 33h20.6c3.3-.1 6.6.2 9.8 1zm-1.1 12.8v-.4c0-1.4-.4-2.8-1.3-3.9-.8-1-1.9-1.8-3.1-2.1-1.8-.4-3.7-.6-5.6-.5H67.9l-2.7 14h12.6c4.1.1 8.1-.9 9.9-4.1 0-.1.1-.3.1-.4.3-.6.5-1.4.7-2.6" class="letter"/></g><g id="A_wrap"><g id="A_shadow" class="letter_shadow"><path d="M130.37 55.64V60l-2.58-11.73V43.9l2.5 11.74m1.3 7v4.34L130.3 60v-4.36l1.35 7"/><path d="M127.8 43.9v4.37L116.4 67.2v-4.36l11.4-18.93M182.25 0v4.36l-36.12 80.77v-4.36L182.25 0M135.2 80.77h10.93v4.36H135.2zm-22.57-10.95h20.24v4.36h-20.24z"/><path d="M135.2 80.77v4.36l-2.33-10.96v-4.35l2.33 10.95m-22.57-10.95v4.35l-38.07 46.9v-4.35l38.07-46.9"/></g><path id="A_letter" d="M136 32.96l8.26 26.83 38-59.9-36.13 80.8H135.2l-2.33-11h-20.25l-38.07 47 49.35-83.8H136zm-19.6 29.88l15.32-.22-1.34-7-2.6-11.66-11.38 18.88" class="letter_green"/></g><g id="O_wrap"><g id="O_shadow" class="letter_shadow"><path d="M195.72 35v4.36q-11.8 0-18.87 8.16v-4.37Q183.9 35 195.72 35zm10.7 18v4.36q0-11.47-11.3-11.47-7.53 0-11.23 7.2a30.48 30.48 0 0 0-3.8 14v-4.4a30.48 30.48 0 0 1 3.7-14q3.7-7.3 11.2-7.3 11.3.03 11.3 11.5z"/><path d="M216.92 54.8v4.36a26.8 26.8 0 0 1-7.17 18.35q-7.17 8-19.07 8a21.45 21.45 0 0 1-14.8-5.4q-6.08-5.4-6.07-14.3v-4.4q0 8.97 6.1 14.4a21.45 21.45 0 0 0 14.8 5.43q11.9 0 19.1-8a26.8 26.8 0 0 0 7.2-18.4z"/></g><path id="O_letter" d="M211.25 40.24q5.67 5.3 5.67 14.52a26.8 26.8 0 0 1-7.17 18.35q-7.17 8-19.07 8a21.45 21.45 0 0 1-14.8-5.4q-6.08-5.4-6.07-14.3a27.17 27.17 0 0 1 7-18.2q7.1-8.2 19-8.2 9.9 0 15.58 5.3zm-8.55 27.3a30.65 30.65 0 0 0 3.72-14.58q0-11.47-11.3-11.47-7.53 0-11.23 7.2a30.48 30.48 0 0 0-3.8 14q0 6.4 3.12 9.1a11.4 11.4 0 0 0 7.66 2.7 12.34 12.34 0 0 0 11.65-7" class="letter"/></g></g><text transform="matrix(.9 0 0 1 214.4 39.5)" font-size="21" font-family="Arial">®</text><text xmlns="http://www.w3.org/2000/svg" y="100" font-size="14" font-family="Arial">Solar Energy Systems Contracting</text></svg>