<svg width="229.79999999999998" height="46.2" xmlns="http://www.w3.org/2000/svg">
 <style type="text/css">.st0{fill-rule:evenodd;clip-rule:evenodd;fill:#004091;} .st1{fill:#E2231A;} .st2{fill:#004091;}</style>

 <g>
  <title>background</title>
  <rect fill="none" id="canvas_background" height="602" width="802" y="-1" x="-1"/>
 </g>
 <g>
  <title>Layer 1</title>
  <path id="svg_1" d="m9.3,27c0.6,0.6 4,4.4 7.3,7.6c3.1,3.1 7,7.1 8.9,8.9c0.3,0.3 0.7,0.7 1,0.7c0.3,0 0.4,-0.3 0.4,-0.9l0.3,-19.1c0,-1.7 0.3,-2.3 1.1,-2.6c0.4,-0.1 0.6,-0.1 0.9,-0.1c0.4,0 0.5,-0.1 0.5,-0.3c0,-0.2 -0.3,-0.3 -0.7,-0.3c-1.5,0 -2.6,0.1 -3,0.1c-0.6,0 -2.1,-0.1 -3.7,-0.1c-0.5,0 -0.8,0 -0.8,0.3c0,0.2 0.1,0.3 0.5,0.3s1.1,0 1.6,0.2c0.7,0.3 1,0.9 1,2.7l0.3,13.6l0.1,0c-0.5,-0.5 -4.6,-4.8 -6.7,-6.9c-4.4,-4.4 -9,-9.3 -9.4,-9.7c-0.5,-0.5 -0.8,-0.9 -1.1,-0.9c-0.3,0 -0.4,0.4 -0.4,1l-0.2,17.8c0,2.6 -0.2,3.5 -0.9,3.7c-0.4,0.1 -1,0.2 -1.4,0.2c-0.3,0 -0.5,0.1 -0.5,0.2c0,0.3 0.3,0.3 0.7,0.3c1.6,0 3,-0.1 3.3,-0.1c0.6,0 1.8,0.1 3.7,0.1c0.4,0 0.7,-0.1 0.7,-0.3c0,-0.2 -0.2,-0.2 -0.5,-0.2c-0.5,0 -1.1,0 -1.6,-0.2c-0.6,-0.2 -1,-1 -1.1,-3.4l-0.3,-12.6zm52.3,8c0,2.8 0,5.2 -0.2,6.4c-0.1,0.9 -0.3,1.5 -0.9,1.7c-0.3,0.1 -0.6,0.1 -1.1,0.1c-0.4,0 -0.5,0.1 -0.5,0.2c0,0.2 0.2,0.3 0.6,0.3c1.2,0 3.1,-0.1 3.7,-0.1c0.5,0 2.7,0.1 4.4,0.1c0.4,0 0.6,-0.1 0.6,-0.3c0,-0.2 -0.1,-0.2 -0.4,-0.2c-0.4,0 -1,-0.1 -1.5,-0.1c-0.9,-0.1 -1.1,-0.8 -1.2,-1.7c-0.2,-1.3 -0.2,-3.7 -0.2,-6.5l0,-0.4c0,-0.2 0.1,-0.2 0.2,-0.2l2.6,0.1c0.2,0 0.4,0 0.5,0.2c0.4,0.5 1.8,2.5 3,4.2c1.7,2.3 2.8,3.7 4.1,4.4c0.8,0.4 1.5,0.6 3.2,0.6l2.9,0c0.4,0 0.6,-0.1 0.6,-0.3c0,-0.2 -0.1,-0.2 -0.4,-0.2c-0.2,0 -0.5,0 -0.8,-0.1c-0.5,-0.1 -1.7,-0.3 -3.4,-2.1c-1.8,-1.9 -3.9,-4.6 -6.6,-8c3.1,-2.5 4,-4.5 4,-6.8c0,-2 -1.2,-3.6 -2.1,-4.1c-1.6,-1.1 -3.7,-1.3 -5.6,-1.3c-0.9,0 -3.2,0.1 -4.3,0.1c-0.6,0 -2.5,-0.1 -4.1,-0.1c-0.5,0 -0.7,0.1 -0.7,0.3c0,0.2 0.2,0.3 0.5,0.3c0.4,0 0.9,0 1.2,0.1c1,0.2 1.2,0.7 1.3,1.7c0.1,1 0.1,1.8 0.1,6.4l0,5.3l0.5,0zm3.5,-12.1c0,-0.2 0.1,-0.4 0.3,-0.4c0.3,-0.1 0.8,-0.1 1.6,-0.1c1.8,0 4.6,1.2 4.6,5.5c0,2.5 -0.9,3.9 -1.8,4.5c-0.5,0.4 -0.9,0.5 -2.1,0.5c-0.8,0 -1.7,-0.1 -2.3,-0.3c-0.2,-0.1 -0.3,-0.2 -0.3,-0.5l0,-9.2zm17.6,18.5c-0.1,0.9 -0.3,1.5 -0.9,1.7c-0.3,0.1 -0.6,0.1 -1.1,0.1c-0.4,0 -0.5,0.1 -0.5,0.2c0,0.2 0.2,0.3 0.6,0.3c1.2,0 3.1,-0.1 3.8,-0.1c1.5,0 4.2,0.4 6.4,0.4c5.6,0 8.7,-2.1 10.1,-3.6c1.7,-1.7 3.3,-4.6 3.3,-8.4c0,-3.6 -1.4,-6.1 -2.9,-7.7c-3.3,-3.4 -8.3,-3.4 -12.1,-3.4c-1.8,0 -3.7,0.1 -4.7,0.1c-0.8,0 -2.8,-0.1 -4.4,-0.1c-0.5,0 -0.7,0.1 -0.7,0.3c0,0.2 0.2,0.3 0.5,0.3c0.4,0 0.9,0 1.2,0.1c1,0.2 1.2,0.7 1.3,1.7c0.1,1 0.1,11.7 0.1,11.7s0.2,5.2 0,6.4zm3.9,-12.2l0,-6c0,-0.3 0.1,-0.5 0.4,-0.6c0.2,-0.1 1.4,-0.2 2,-0.2c2.4,0 5.8,0.4 8.6,3c1.3,1.2 2.9,3.7 2.9,7.6c0,3.1 -0.6,5.9 -2.5,7.5c-1.8,1.6 -3.9,2.2 -7,2.2c-2.4,0 -3.6,-0.6 -4,-1.2c-0.2,-0.3 -0.3,-1.5 -0.3,-2.3c0,-0.6 -0.1,-2.9 -0.1,-6.1l0,-3.9zm34.3,13.9c0.2,0.8 0.4,1.1 0.7,1.1c0.4,0 0.5,-0.4 1.1,-1.6c1.3,-2.8 5.3,-13.5 5.9,-15l0.1,0l6.3,15.1c0.5,1.1 0.6,1.5 0.9,1.5c0.4,0 0.5,-0.4 0.9,-1.4l6,-18c0.6,-1.7 1,-2.9 1.7,-3.2c0.3,-0.1 0.8,-0.2 1.1,-0.2c0.3,0 0.4,-0.1 0.4,-0.3c0,-0.2 -0.2,-0.2 -0.5,-0.2c-1,0 -2.3,0.1 -2.5,0.1c-0.3,0 -1.5,-0.1 -3.1,-0.1c-0.5,0 -0.7,0.1 -0.7,0.3c0,0.2 0.2,0.3 0.5,0.3c1.2,0 1.5,0.4 1.5,0.9c0,0.4 -0.1,1.1 -0.3,1.8c-1.1,3.5 -3.5,11.5 -4,13.5l-0.1,0l-6.3,-15.2c-0.4,-1 -0.5,-1.4 -0.9,-1.4c-0.2,0 -0.4,0.2 -0.8,1.1l-5.9,15.8l-0.1,0c-0.5,-1.7 -3.4,-10.9 -3.9,-12.8c-0.4,-1.4 -0.7,-2.4 -0.7,-2.8c0,-0.3 0.1,-0.5 0.3,-0.7c0.2,-0.1 0.5,-0.1 0.8,-0.1c0.3,0 0.5,0 0.5,-0.3c0,-0.2 -0.2,-0.3 -0.6,-0.3c-1.8,0 -3.1,0.1 -3.4,0.1c-0.3,0 -1.9,-0.1 -3.5,-0.1c-0.4,0 -0.7,0.1 -0.7,0.3c0,0.2 0.2,0.3 0.5,0.3s0.9,0.1 1.2,0.3c0.4,0.3 0.8,1 1.1,2.1l6.5,19.1zm35.8,-7.2c0.2,0 0.2,0.1 0.3,0.2l2.4,6.4c0.2,0.4 -0.1,0.6 -0.3,0.7c-0.3,0 -0.4,0.1 -0.4,0.3c0,0.2 0.4,0.2 0.9,0.2c2.4,0.1 4.6,0.1 5.7,0.1c1.1,0 1.4,-0.1 1.4,-0.3c0,-0.2 -0.2,-0.2 -0.4,-0.2c-0.4,0 -0.8,0 -1.3,-0.1c-0.6,-0.2 -1.5,-0.6 -2.7,-3.3c-1.9,-4.6 -6.8,-16.9 -7.5,-18.6c-0.3,-0.7 -0.5,-1 -0.8,-1c-0.3,0 -0.5,0.3 -0.8,1.2l-7.6,19c-0.6,1.5 -1.2,2.5 -2.6,2.7l-0.9,0.1c-0.2,0 -0.4,0.1 -0.4,0.2c0,0.2 0.2,0.3 0.6,0.3c1.6,0 3.2,-0.1 3.6,-0.1c0.9,0 2.2,0.1 3.2,0.1c0.3,0 0.5,-0.1 0.5,-0.3c0,-0.2 -0.1,-0.2 -0.5,-0.2l-0.5,0c-0.9,0 -1.2,-0.4 -1.2,-0.9c0,-0.4 0.2,-1.1 0.5,-1.8l1.6,-4.3c0.1,-0.2 0.1,-0.2 0.3,-0.2l6.9,0l0,-0.2zm-6.1,-1.5c-0.1,0 -0.2,-0.1 -0.1,-0.2l2.8,-7.4c0,-0.1 0.1,-0.3 0.2,-0.3s0.1,0.2 0.2,0.3l2.7,7.5c0,0.1 0,0.2 -0.2,0.2l-5.6,0l0,-0.1zm20.7,0.6c0,2.8 0,5.2 -0.2,6.4c-0.1,0.9 -0.3,1.5 -0.9,1.7c-0.3,0.1 -0.6,0.1 -1.1,0.1c-0.4,0 -0.5,0.1 -0.5,0.2c0,0.2 0.2,0.3 0.6,0.3c1.2,0 3.1,-0.1 3.8,-0.1c0.8,0 2.8,0.1 4.7,0.1c0.3,0 0.6,-0.1 0.6,-0.3c0,-0.2 -0.2,-0.2 -0.5,-0.2c-0.5,0 -1.1,-0.1 -1.5,-0.1c-0.9,-0.1 -1.1,-0.8 -1.2,-1.6c-0.2,-1.3 -0.2,-3.7 -0.2,-6.5l0,-12.4l3.8,0.1c2.7,0.1 3.5,0.9 3.6,1.7l0,0.3c0,0.5 0.1,0.6 0.3,0.6c0.2,0 0.2,-0.2 0.3,-0.5c0,-0.8 0.1,-2.9 0.1,-3.5c0,-0.5 0,-0.6 -0.2,-0.6s-1,0.3 -2.9,0.3l-12,0c-1,0 -2.1,-0.1 -3,-0.2c-0.8,-0.1 -1.1,-0.4 -1.3,-0.4c-0.2,0 -0.3,0.2 -0.4,0.6c-0.1,0.2 -0.6,3 -0.6,3.5c0,0.3 0.1,0.5 0.3,0.5c0.2,0 0.3,-0.1 0.3,-0.4c0.1,-0.2 0.2,-0.6 0.5,-1.1c0.5,-0.7 1.2,-0.8 2.9,-0.9l4.5,-0.1l0,12.5l0.2,0zm15.6,0c0,2.8 0,5.2 -0.2,6.4c-0.1,0.9 -0.3,1.5 -0.9,1.7c-0.3,0.1 -0.6,0.1 -1.1,0.1c-0.4,0 -0.5,0.1 -0.5,0.2c0,0.2 0.2,0.3 0.6,0.3c1.2,0 3.1,-0.1 3.8,-0.1c1.8,0 3.8,0.2 8.4,0.2c1.1,0 1.4,0 1.6,-0.8c0.2,-0.6 0.4,-2.7 0.4,-3.4c0,-0.3 0,-0.5 -0.2,-0.5s-0.3,0.1 -0.3,0.5c-0.2,1.2 -0.6,1.9 -1.4,2.2c-0.8,0.4 -2.1,0.4 -2.8,0.4c-3.1,0 -3.6,-0.5 -3.6,-2.5l0,-7.1c0,-0.2 0,-0.3 0.2,-0.3c0.7,0 3.7,0 4.3,0.1c1.1,0.1 1.5,0.6 1.7,1.2c0.1,0.4 0.1,0.8 0.1,1.1c0,0.2 0.1,0.3 0.3,0.3c0.3,0 0.3,-0.3 0.3,-0.6c0,-0.2 0.1,-1.4 0.1,-2c0.1,-1.5 0.2,-2 0.2,-2.2c0,-0.2 -0.1,-0.2 -0.2,-0.2c-0.2,0 -0.3,0.2 -0.5,0.4c-0.3,0.3 -0.7,0.4 -1.5,0.5c-0.7,0.1 -4.2,0.1 -4.8,0.1c-0.2,0 -0.2,-0.1 -0.2,-0.3l0,-7.6c0,-0.2 0.1,-0.3 0.2,-0.3c0.6,0 3.8,0.1 4.3,0.1c1.5,0.2 1.8,0.5 2,1.1c0.2,0.4 0.2,0.9 0.2,1.1c0,0.3 0.1,0.4 0.3,0.4c0.2,0 0.3,-0.2 0.3,-0.3c0.1,-0.4 0.1,-1.7 0.2,-2c0.1,-1.4 0.2,-1.8 0.2,-2c0,-0.2 0,-0.3 -0.2,-0.3l-0.5,0.1c-0.2,0.1 -0.7,0.1 -1.3,0.2l-7.6,0c-0.8,0 -2.8,-0.1 -4.4,-0.1c-0.5,0 -0.7,0.1 -0.7,0.3c0,0.2 0.2,0.3 0.5,0.3c0.4,0 0.9,0 1.2,0.1c1,0.2 1.2,0.7 1.3,1.7c0.1,1 0.1,1.8 0.1,6.4l0,5.1l0.1,0zm17.9,0c0,2.8 0,5.2 -0.2,6.4c-0.1,0.9 -0.3,1.5 -0.9,1.7c-0.3,0.1 -0.6,0.1 -1.1,0.1c-0.4,0 -0.5,0.1 -0.5,0.2c0,0.2 0.2,0.3 0.6,0.3c1.2,0 3.1,-0.1 3.7,-0.1c0.5,0 2.7,0.1 4.4,0.1c0.4,0 0.6,-0.1 0.6,-0.3c0,-0.2 -0.1,-0.2 -0.4,-0.2c-0.4,0 -1,-0.1 -1.5,-0.1c-0.9,-0.1 -1.1,-0.8 -1.2,-1.7c-0.2,-1.3 -0.2,-3.7 -0.2,-6.5l0,-0.4c0,-0.2 0.1,-0.2 0.2,-0.2l2.6,0.1c0.2,0 0.4,0 0.5,0.2c0.4,0.5 1.8,2.5 3,4.2c1.7,2.3 2.8,3.7 4.1,4.4c0.8,0.4 1.5,0.6 3.2,0.6l2.9,0c0.4,0 0.6,-0.1 0.6,-0.3c0,-0.2 -0.1,-0.2 -0.4,-0.2c-0.2,0 -0.5,0 -0.8,-0.1c-0.5,-0.1 -1.7,-0.3 -3.4,-2.1c-1.8,-1.9 -3.9,-4.6 -6.6,-8c3.1,-2.5 4,-4.5 4,-6.8c0,-2 -1.2,-3.6 -2.1,-4.1c-1.6,-1.1 -3.7,-1.3 -5.6,-1.3c-0.9,0 -3.2,0.1 -4.3,0.1c-0.6,0 -2.5,-0.1 -4.1,-0.1c-0.5,0 -0.7,0.1 -0.7,0.3c0,0.2 0.2,0.3 0.5,0.3c0.4,0 0.9,0 1.2,0.1c1,0.2 1.2,0.7 1.3,1.7c0.1,1 0.1,1.8 0.1,6.4l0,5.3l0.5,0zm3.6,-12.1c0,-0.2 0.1,-0.4 0.3,-0.4c0.3,-0.1 0.8,-0.1 1.6,-0.1c1.8,0 4.6,1.2 4.6,5.5c0,2.5 -0.9,3.9 -1.8,4.5c-0.5,0.4 -0.9,0.5 -2.1,0.5c-0.8,0 -1.7,-0.1 -2.3,-0.3c-0.2,-0.1 -0.3,-0.2 -0.3,-0.5l0,-9.2z" class="st0"/>
  <path id="svg_2" d="m39.4,30.9l4.7,-16.1l4.8,16.1l-9.5,0z" class="st1"/>
  <path id="svg_3" d="m45.2,42.7c2.1,0 7,-1 7,-9.8c0,-3.8 -1.2,-6.8 -3.2,-8.7l-1,-3.3c5.3,1.3 8.4,5.2 8.4,10.9c0,6.9 -4.8,12.4 -12.5,12.4c-8.7,0 -12.2,-6.5 -12.2,-11.9c0,-4.3 2.4,-9.6 8.3,-11.3l-0.6,1.9c-2,1.2 -3.6,3.7 -3.6,8.5c0.1,6.3 3.6,11.3 9.4,11.3z" class="st0"/>
  <path stroke="null" id="svg_4" d="m-25.33325,6.36667zm70.08137,-3.1l0.43461,-0.1c0.10865,0 0.21731,0 0.21731,-0.1s-0.10865,-0.1 -0.21731,-0.1l-2.49903,0c-0.21731,0 -0.32596,0 -0.32596,0.1s0.10865,0.1 0.21731,0.1c0.54327,0 0.65192,0.2 0.65192,0.4s0,0.4 -0.10865,0.7c-0.43461,1.4 -1.52115,4.6 -1.73845,5.4l-2.71633,-6.1c-0.21731,-0.4 -0.21731,-0.6 -0.43461,-0.6c-0.10865,0 -0.21731,0.1 -0.32596,0.4l-2.60768,6.3c-0.21731,-0.7 -1.41249,-4.4 -1.73845,-5.2c-0.10865,-0.5 -0.32596,-1 -0.32596,-1.1c0,-0.1 0,-0.2 0.10865,-0.3l0.32596,0c0.10865,0 0.21731,0 0.21731,-0.1s-0.10865,-0.1 -0.32596,-0.1l-2.93364,0c-0.21731,0 -0.32596,0 -0.32596,0.1s0.10865,0.1 0.21731,0.1s0.43461,0 0.54327,0.1c0.21731,0.1 0.32596,0.4 0.43461,0.9l2.82499,7.7c0.10865,0.3 0.21731,0.4 0.32596,0.4c0.10865,0 0.21731,-0.1 0.43461,-0.6c0.54327,-1.1 2.28172,-5.4 2.60768,-6l2.93364,6.1c0.21731,0.4 0.32596,0.6 0.43461,0.6c0.21731,0 0.21731,-0.1 0.43461,-0.6l2.60768,-7.2c0.21731,-0.6 0.32596,-1.1 0.65192,-1.2zm9.67014,8.6l-0.54327,0c-0.32596,-0.1 -0.65192,-0.2 -1.19519,-1.3c-0.86923,-1.8 -2.93364,-6.8 -3.2596,-7.5c-0.10865,-0.3 -0.21731,-0.4 -0.32596,-0.4c-0.10865,0 -0.21731,0.1 -0.32596,0.5l-3.2596,7.6c-0.21731,0.6 -0.54327,1 -1.08653,1.1l-0.43461,0c-0.10865,0 -0.10865,0 -0.10865,0.1s0.10865,0.1 0.21731,0.1l2.93364,0c0.10865,0 0.21731,0 0.21731,-0.1s0,-0.1 -0.21731,-0.1l-0.21731,0c-0.43461,0 -0.54327,-0.2 -0.54327,-0.4c0,-0.1 0.10865,-0.4 0.21731,-0.7l0.65192,-1.7c0,-0.1 0,-0.1 0.10865,-0.1l2.93364,0c0.10865,0 0.10865,0 0.10865,0.1l1.08653,2.6c0.10865,0.1 0,0.3 -0.10865,0.3s-0.21731,0 -0.21731,0.1s0.10865,0.1 0.43461,0.1l2.49903,0c0.43461,0 0.65192,0 0.65192,-0.1c-0.10865,-0.1 -0.10865,-0.2 -0.21731,-0.2zm-4.45478,-3.5l-2.39037,0s-0.10865,0 0,-0.1l1.19519,-3s0,-0.1 0.10865,-0.1c0,0 0,0.1 0.10865,0.1l0.97788,3.1zm11.95186,-5.5s-0.10865,0 -0.32596,0.1c-0.21731,0 -0.43461,0.1 -0.86923,0.1l-5.21536,0c-0.43461,0 -0.97788,0 -1.30384,-0.1c-0.32596,0 -0.43461,-0.1 -0.54327,-0.1c-0.10865,0 -0.10865,0.1 -0.10865,0.2s-0.32596,1.2 -0.32596,1.4c0,0.1 0,0.2 0.10865,0.2s0.10865,0 0.10865,-0.1l0.21731,-0.4c0.10865,-0.4 0.43461,-0.5 1.19519,-0.5l2.06441,0s0,7.1 -0.10865,7.6c0,0.4 -0.10865,0.6 -0.43461,0.7l-0.43461,0c-0.10865,0 -0.21731,0 -0.21731,0.1s0.10865,0.1 0.21731,0.1l3.69421,0c0.10865,0 0.21731,0 0.21731,-0.1s-0.10865,-0.1 -0.21731,-0.1l-0.65192,0c-0.43461,0 -0.43461,-0.3 -0.54327,-0.7c0.10865,-0.6 0.10865,-7.6 0.10865,-7.6l1.6298,0c1.19519,0 1.52115,0.4 1.52115,0.7l0,0.1c0,0.2 0,0.2 0.10865,0.2s0.10865,-0.1 0.10865,-0.2l0,-1.4c0.10865,-0.1 0.10865,-0.2 0,-0.2zm7.82304,7.4c-0.10865,0 -0.10865,0 -0.10865,0.2c-0.10865,0.5 -0.21731,0.8 -0.54327,0.9c-0.32596,0.1 -0.86923,0.1 -1.19519,0.1c-1.30384,0 -1.52115,-0.2 -1.6298,-1l0,-2.8c0,-0.1 0,-0.1 0.10865,-0.1l1.84711,0c0.43461,0 0.65192,0.2 0.76057,0.5l0,0.4c0,0.1 0,0.1 0.10865,0.1s0.10865,-0.1 0.10865,-0.2l0,-0.8c0,-0.6 0.10865,-0.8 0.10865,-0.9c0,-0.1 0,-0.1 -0.10865,-0.1l-0.21731,0.2s-0.32596,0.2 -0.65192,0.2l-2.06441,0c-0.10865,0 -0.10865,0 -0.10865,-0.1l0,-3.2c0,-0.1 0,-0.1 0.10865,-0.1l1.84711,0c0.65192,0.1 0.76057,0.3 0.86923,0.5c0.10865,0.1 0.10865,0.4 0.10865,0.4c0,0.1 0,0.2 0.10865,0.2l0.10865,-0.1c0,-0.1 0,-0.7 0.10865,-0.8c0,-0.6 0.10865,-0.7 0.10865,-0.8c0,-0.1 0,-0.1 -0.10865,-0.1l-0.21731,0c-0.10865,0 -0.32596,0 -0.54327,0.1l-5.21536,0c-0.21731,0 -0.32596,0 -0.32596,0.1s0.10865,0.1 0.21731,0.1l0.54327,0c0.43461,0.1 0.54327,0.3 0.54327,0.7l0,4.7c0,1.1 0,2.1 -0.10865,2.6c0,0.4 -0.10865,0.6 -0.43461,0.7l-0.43461,0c-0.10865,0 -0.21731,0 -0.21731,0.1s0.10865,0.1 0.21731,0.1l5.32401,0c0.54327,0 0.65192,0 0.76057,-0.3c0.10865,-0.2 0.21731,-1.1 0.21731,-1.3c0.10865,-0.1 0.10865,-0.2 0,-0.2zm11.95186,1.6l-0.32596,0c-0.21731,0 -0.76057,-0.1 -1.52115,-0.8c-0.76057,-0.8 -1.73845,-1.8 -2.82499,-3.2c1.30384,-1 1.73845,-1.8 1.73845,-2.7c0,-0.8 -0.54327,-1.4 -0.86923,-1.7c-0.76057,-0.4 -1.6298,-0.5 -2.39037,-0.5l-3.69421,0c-0.21731,0 -0.32596,0 -0.32596,0.1s0.10865,0.1 0.21731,0.1l0.54327,0c0.43461,0.1 0.54327,0.3 0.54327,0.7l0,4.7c0,1.1 0,2.1 -0.10865,2.6c0,0.4 -0.10865,0.6 -0.43461,0.7l-0.43461,0c-0.10865,0 -0.21731,0 -0.21731,0.1s0.10865,0.1 0.21731,0.1l3.58556,0c0.21731,0 0.21731,0 0.21731,-0.1s0,-0.1 -0.10865,-0.1l-0.65192,0c-0.43461,0 -0.43461,-0.3 -0.54327,-0.7c-0.10865,-0.5 -0.10865,-1.5 -0.10865,-2.6l0,-0.1c0,-0.1 0,-0.1 0.10865,-0.1l1.19519,0c0.10865,0 0.21731,0 0.21731,0.1c0.21731,0.2 0.76057,1 1.30384,1.7c0.76057,0.9 1.19519,1.5 1.84711,1.8c0.32596,0.2 0.65192,0.2 1.41249,0.2l1.30384,0c0.10865,0 0.21731,0 0.21731,-0.1c0.10865,-0.1 0,-0.2 -0.10865,-0.2zm-5.21536,-4.3c-0.21731,0.2 -0.43461,0.2 -0.97788,0.2c-0.32596,0 -0.76057,0 -0.97788,-0.1c-0.10865,0 -0.10865,-0.1 -0.10865,-0.2l0,-3.7c0,-0.1 0,-0.1 0.10865,-0.2l0.65192,0c0.76057,0 2.06441,0.5 2.06441,2.2c0,1 -0.43461,1.5 -0.76057,1.8zm15.32011,-4.7c-0.10865,0 -0.10865,0 -0.21731,0.1l-5.97593,0c-0.21731,0 -0.32596,0 -0.32596,0.1s0.10865,0.1 0.21731,0.1l0.54327,0c0.43461,0.1 0.54327,0.3 0.54327,0.7l0,4.7c0,1.2 0,2.1 -0.10865,2.6c0,0.4 -0.10865,0.6 -0.43461,0.7l-0.43461,0c-0.10865,0 -0.21731,0 -0.21731,0.1s0.10865,0.1 0.32596,0.1l3.58556,0c0.21731,0 0.32596,0 0.32596,-0.1s0,-0.1 -0.21731,-0.1l-0.65192,0c-0.43461,0 -0.43461,-0.3 -0.54327,-0.7c0.21731,-0.5 0.21731,-1.4 0.21731,-2.6l0,-0.9c0,-0.1 0,-0.1 0.10865,-0.1l1.95576,0c0.43461,0 0.65192,0.3 0.65192,0.4l0.10865,0.4c0,0.1 0,0.2 0.10865,0.2s0.10865,-0.1 0.10865,-0.2l0,-0.9c0,-0.4 0.10865,-0.7 0.10865,-0.8c0,-0.1 0,-0.1 -0.10865,-0.1s-0.10865,0 -0.21731,0.1c-0.10865,0.2 -0.32596,0.2 -0.54327,0.2l-2.28172,0c-0.10865,0 -0.10865,0 -0.10865,-0.1l0,-3c0,-0.1 0,-0.2 0.10865,-0.2l2.06441,0c0.54327,0 0.76057,0.2 0.86923,0.4c0.10865,0.2 0.10865,0.4 0.10865,0.5c0,0.1 0,0.2 0.10865,0.2s0.10865,-0.1 0.10865,-0.2s0,-0.9 0.10865,-1c0,-0.3 0.10865,-0.5 0.10865,-0.5c0,-0.1 0,-0.1 -0.10865,-0.1zm12.06051,9l-0.32596,0c-0.21731,0 -0.76057,-0.1 -1.52115,-0.8c-0.76057,-0.8 -1.73845,-1.8 -2.82499,-3.2c1.30384,-1 1.73845,-1.8 1.73845,-2.7c0,-0.8 -0.54327,-1.4 -0.86923,-1.7c-0.76057,-0.4 -1.6298,-0.5 -2.39037,-0.5l-3.69421,0c-0.21731,0 -0.32596,0 -0.32596,0.1s0.10865,0.1 0.21731,0.1l0.54327,0c0.43461,0.1 0.54327,0.3 0.54327,0.7l0,4.7c0,1.1 0,2.1 -0.10865,2.6c0,0.4 -0.10865,0.6 -0.43461,0.7l-0.43461,0c-0.10865,0 -0.21731,0 -0.21731,0.1s0.10865,0.1 0.21731,0.1l3.58556,0c0.21731,0 0.21731,0 0.21731,-0.1s0,-0.1 -0.10865,-0.1l-0.65192,0c-0.43461,0 -0.43461,-0.3 -0.54327,-0.7c-0.10865,-0.5 -0.10865,-1.5 -0.10865,-2.6l0,-0.1c0,-0.1 0,-0.1 0.10865,-0.1l1.19519,0c0.10865,0 0.21731,0 0.21731,0.1c0.21731,0.2 0.76057,1 1.30384,1.7c0.76057,0.9 1.19519,1.5 1.84711,1.8c0.32596,0.2 0.65192,0.2 1.41249,0.2l1.30384,0c0.10865,0 0.21731,0 0.21731,-0.1s0,-0.2 -0.10865,-0.2zm-5.32401,-4.3c-0.21731,0.2 -0.43461,0.2 -0.97788,0.2c-0.32596,0 -0.76057,0 -0.97788,-0.1c-0.10865,0 -0.10865,-0.1 -0.10865,-0.2l0,-3.7c0,-0.1 0,-0.1 0.10865,-0.2l0.65192,0c0.76057,0 2.06441,0.5 2.06441,2.2c0,1 -0.32596,1.5 -0.76057,1.8zm10.32206,-4.8c-3.91152,0 -5.43266,2.7 -5.43266,4.8c0,2.1 1.52115,4.8 5.32401,4.8c3.36825,0 5.43266,-2.2 5.43266,-5s-2.06441,-4.6 -5.32401,-4.6zm0.43461,8.9c-2.49903,0 -4.02017,-2 -4.02017,-4.5c0,-3 1.73845,-3.8 3.2596,-3.8c2.17307,0 3.91152,1.7 3.91152,4.4c-0.10865,3.5 -2.28172,3.9 -3.15095,3.9zm19.12298,0.2c-0.21731,0 -0.43461,0 -0.86923,-0.1s-0.54327,-0.5 -0.65192,-1.2l-1.19519,-7.5c0,-0.3 -0.10865,-0.4 -0.21731,-0.4s-0.21731,0.1 -0.32596,0.3l-3.58556,6.9l-3.58556,-6.8c-0.10865,-0.3 -0.21731,-0.4 -0.21731,-0.4c-0.10865,0 -0.21731,0.1 -0.21731,0.3l-1.30384,7.9c-0.10865,0.4 -0.21731,0.9 -0.54327,1l-0.43461,0c-0.10865,0 -0.21731,0 -0.21731,0.1s0.10865,0.1 0.21731,0.1l2.71633,0c0.21731,0 0.32596,0 0.32596,-0.1s-0.10865,-0.1 -0.21731,-0.1s-0.32596,0 -0.54327,-0.1c-0.21731,0 -0.43461,-0.2 -0.43461,-0.4l0,-0.6l0.65192,-4.8l1.41249,2.7c0.10865,0.3 1.19519,2.2 1.52115,2.8c0.21731,0.4 0.32596,0.6 0.43461,0.6c0.10865,0 0.21731,-0.1 0.43461,-0.7l2.82499,-5.5l0.76057,5.3c0,0.3 0,0.5 -0.10865,0.5l-0.10865,0.1c0,0.1 0.10865,0.1 0.43461,0.1c0.54327,0 2.39037,0.1 2.71633,0.1c0.21731,0 0.32596,0 0.32596,-0.1c0.21731,0.1 0.10865,0 0,0zm11.40859,-9c-0.10865,0 -0.10865,0 -0.21731,0.1l-5.97593,0c-0.21731,0 -0.32596,0 -0.32596,0.1s0.10865,0.1 0.21731,0.1l0.54327,0c0.43461,0.1 0.54327,0.3 0.54327,0.7l0,4.7c0,1.2 0,2.1 -0.10865,2.6c0,0.4 -0.10865,0.6 -0.43461,0.7l-0.43461,0c-0.10865,0 -0.21731,0 -0.21731,0.1s0.10865,0.1 0.32596,0.1l3.58556,0c0.21731,0 0.32596,0 0.32596,-0.1s0,-0.1 -0.21731,-0.1l-0.65192,0c-0.43461,0 -0.43461,-0.3 -0.54327,-0.7c-0.10865,-0.5 -0.10865,-1.4 -0.10865,-2.6l0,-0.9c0,-0.1 0,-0.1 0.10865,-0.1l1.95576,0c0.43461,0 0.65192,0.3 0.65192,0.4l0.10865,0.4c0,0.1 0,0.2 0.10865,0.2s0.10865,-0.1 0.10865,-0.2l0,-0.9c0,-0.4 0.10865,-0.7 0.10865,-0.8c0,-0.1 0,-0.1 -0.10865,-0.1s-0.10865,0 -0.21731,0.1c-0.10865,0.2 -0.32596,0.2 -0.54327,0.2l-2.28172,0c-0.10865,0 -0.10865,0 -0.10865,-0.1l0,-3c0,-0.1 0,-0.2 0.10865,-0.2l2.06441,0c0.54327,0 0.76057,0.2 0.86923,0.4c0.10865,0.2 0.10865,0.4 0.10865,0.5c0,0.1 0,0.2 0.10865,0.2s0.10865,-0.1 0.10865,-0.2s0,-0.9 0.10865,-1c0,-0.3 0.10865,-0.5 0.10865,-0.5c0.32596,-0.1 0.21731,-0.1 0.21731,-0.1zm5.97593,9l-0.65192,0c-0.43461,0 -0.43461,-0.3 -0.54327,-0.6l0,-7.4c0,-0.4 0.10865,-0.6 0.43461,-0.7l0.43461,0c0.10865,0 0.21731,0 0.21731,-0.1s-0.10865,-0.1 -0.32596,-0.1l-3.36825,0c-0.21731,0 -0.32596,0 -0.32596,0.1s0.10865,0.1 0.21731,0.1l0.43461,0c0.32596,0.1 0.43461,0.3 0.43461,0.7l0,4.7c0,1.2 0,2.1 -0.10865,2.6c0,0.4 -0.10865,0.6 -0.43461,0.6l-0.43461,0c-0.10865,0 -0.21731,0 -0.21731,0.1s0.10865,0.1 0.21731,0.1l3.69421,0c0.10865,0 0.21731,0 0.21731,-0.1c0.32596,0.1 0.21731,0 0.10865,0zm12.38647,-8.9l-2.93364,0c-0.21731,0 -0.32596,0 -0.32596,0.1s0,0.1 0.21731,0.1s0.54327,0 0.65192,0.1c0.32596,0.1 0.43461,0.4 0.43461,1.1l0.10865,5.4l-0.10865,0c-0.21731,-0.2 -1.95576,-1.9 -2.93364,-2.8c-1.95576,-1.8 -3.91152,-3.7 -4.12882,-3.9c-0.21731,-0.2 -0.32596,-0.4 -0.43461,-0.4c-0.10865,0 -0.21731,0.2 -0.21731,0.4l-0.10865,7.2c0,1.1 -0.10865,1.4 -0.43461,1.5c-0.21731,0 -0.43461,0.1 -0.54327,0.1c-0.10865,0 -0.21731,0 -0.21731,0.1s0.10865,0.1 0.32596,0.1l3.04229,0c0.21731,0 0.32596,0 0.32596,-0.1s-0.10865,-0.1 -0.21731,-0.1c-0.21731,0 -0.43461,0 -0.65192,-0.1c-0.21731,-0.1 -0.43461,-0.4 -0.43461,-1.3l-0.10865,-5.1c0.21731,0.2 1.73845,1.7 3.15095,3.1l3.91152,3.6c0.10865,0.1 0.32596,0.3 0.43461,0.3c0.10865,0 0.21731,-0.1 0.21731,-0.4l0.10865,-7.7c0,-0.7 0.10865,-0.9 0.43461,-1l0.43461,0c0.10865,0 0.21731,0 0.21731,-0.1c0,-0.2 -0.10865,-0.2 -0.21731,-0.2zm29.87965,0l-2.93364,0c-0.21731,0 -0.32596,0 -0.32596,0.1s0,0.1 0.21731,0.1s0.54327,0 0.65192,0.1c0.32596,0.1 0.43461,0.4 0.43461,1.1l0.10865,5.4l-0.10865,0c-0.21731,-0.2 -1.95576,-1.9 -2.93364,-2.8c-1.95576,-1.8 -3.91152,-3.7 -4.12882,-3.9c-0.21731,-0.2 -0.32596,-0.4 -0.43461,-0.4c-0.10865,0 -0.21731,0.2 -0.21731,0.4l-0.10865,7.2c0,1.1 -0.10865,1.4 -0.43461,1.5c-0.21731,0 -0.43461,0.1 -0.54327,0.1l-0.76057,0c-0.32596,-0.1 -0.65192,-0.2 -1.19519,-1.3c-0.86923,-1.8 -2.93364,-6.8 -3.2596,-7.5c0.10865,-0.3 0,-0.4 -0.10865,-0.4s-0.21731,0.1 -0.32596,0.5l-3.2596,7.6c-0.21731,0.6 -0.54327,1 -1.08653,1.1l-0.32596,0l0,-0.1c0.10865,-0.4 0.21731,-1.3 0.21731,-1.4c0,-0.1 0,-0.2 -0.10865,-0.2s-0.10865,0.1 -0.10865,0.2c0,0.2 -0.21731,0.6 -0.32596,0.7c-0.32596,0.3 -0.86923,0.3 -1.52115,0.3c-0.97788,0 -1.41249,-0.1 -1.6298,-0.3c-0.32596,-0.2 -0.32596,-1.1 -0.32596,-2.6l0,-4.6c0,-0.4 0.10865,-0.6 0.43461,-0.7l0.54327,0c0.10865,0 0.21731,0 0.21731,-0.1s-0.10865,-0.1 -0.32596,-0.1l-3.69421,0c-0.21731,0 -0.32596,0 -0.32596,0.1s0.10865,0.1 0.21731,0.1l0.43461,0c0.43461,0.1 0.54327,0.3 0.54327,0.7l0,4.7c0,1.1 0,2.1 -0.10865,2.6c0,0.4 -0.10865,0.6 -0.43461,0.7l-0.43461,0c-0.10865,0 -0.21731,0 -0.21731,0.1s0.10865,0.1 0.21731,0.1l5.54132,0c0.32596,0 0.54327,0 0.65192,-0.1l3.15095,0c0.10865,0 0.21731,0 0.21731,-0.1s0,-0.1 -0.21731,-0.1l-0.21731,0c-0.43461,0 -0.54327,-0.2 -0.54327,-0.4c0,-0.1 0.10865,-0.4 0.21731,-0.7l0.76057,-1.7c0,-0.1 0,-0.1 0.10865,-0.1l2.93364,0c0.10865,0 0.10865,0 0.10865,0.1l1.08653,2.6c0.10865,0.1 0,0.3 -0.10865,0.3s-0.21731,0 -0.21731,0.1s0.10865,0.1 0.43461,0.1l6.30189,0c0.21731,0 0.32596,0 0.32596,-0.1s-0.10865,-0.1 -0.21731,-0.1c-0.21731,0 -0.43461,0 -0.65192,-0.1c-0.21731,-0.1 -0.43461,-0.4 -0.43461,-1.3l-0.10865,-5.1c0.21731,0.2 1.73845,1.7 3.15095,3.1l3.91152,3.6c0.10865,0.1 0.32596,0.3 0.43461,0.3c0.10865,0 0.21731,-0.1 0.21731,-0.4l0.10865,-7.7c0,-0.7 0.10865,-0.9 0.43461,-1l0.43461,0c0.10865,0 0.21731,0 0.21731,-0.1c0.10865,-0.2 0,-0.2 -0.21731,-0.2zm-15.21146,5.4l-2.39037,0s-0.10865,0 0,-0.1l1.19519,-3s0,-0.1 0.10865,-0.1c0,0 0,0.1 0.10865,0.1l0.97788,3.1c0.10865,-0.1 0.10865,0 0,0zm26.72871,-4c-1.41249,-1.4 -3.58556,-1.4 -5.32401,-1.4l-3.91152,0c-0.21731,0 -0.32596,0 -0.32596,0.1s0.10865,0.1 0.21731,0.1l0.54327,0c0.43461,0.1 0.54327,0.3 0.54327,0.7l0,4.7c0,1.1 0,2.1 -0.10865,2.6c0,0.4 -0.10865,0.6 -0.43461,0.7l-0.43461,0c-0.10865,0 -0.21731,0 -0.21731,0.1s0.10865,0.1 0.21731,0.1l1.6298,0c0.32596,0 0.76057,0 1.30384,0.1c0.54327,0 1.08653,0.1 1.52115,0.1c2.39037,0 3.80286,-0.9 4.45478,-1.4c0.76057,-0.7 1.41249,-1.9 1.41249,-3.4c0.10865,-1.5 -0.43461,-2.5 -1.08653,-3.1zm-1.6298,6.4c-0.76057,0.6 -1.73845,0.9 -3.04229,0.9c-1.08653,0 -1.52115,-0.3 -1.73845,-0.5c-0.10865,-0.1 -0.10865,-0.6 -0.10865,-0.9l0,-6.4c0,-0.1 0,-0.2 0.10865,-0.2s0.54327,-0.1 0.86923,-0.1c0.97788,0 2.49903,0.1 3.69421,1.2c0.54327,0.5 1.30384,1.5 1.30384,3c0,1.3 -0.21731,2.4 -1.08653,3z" class="st2"/>
 </g>
</svg>